<?xml version="1.0" encoding="UTF-8"?>
<svg id="Calque_1" data-name="Calque 1" xmlns="http://www.w3.org/2000/svg" viewBox="0 0 566.93 566.93">
  <defs>
    <style>
      .cls-1 {
        fill: #5db18f;
      }
    </style>
  </defs>
  <g>
    <path class="cls-1" d="M371.79,150.79l-73.56-42.47c-9.98-5.76-22.39-5.76-32.37,0l-73.56,42.47c-9.98,5.76-16.19,16.51-16.19,28.03v84.94c0,11.53,6.2,22.27,16.19,28.03l73.56,42.47c4.99,2.88,10.59,4.32,16.18,4.32s11.2-1.44,16.19-4.32l73.56-42.47c9.98-5.76,16.18-16.5,16.18-28.03v-84.94c0-11.53-6.2-22.27-16.18-28.03Zm5.08,112.97c0,7.57-4.07,14.63-10.63,18.41l-73.56,42.47c-6.56,3.78-14.7,3.79-21.27,0l-73.56-42.47c-6.56-3.79-10.63-10.84-10.63-18.41v-84.94c0-7.57,4.08-14.63,10.63-18.42l73.56-42.47c3.28-1.89,6.95-2.84,10.63-2.84s7.36,.95,10.63,2.84l73.56,42.47c6.56,3.79,10.63,10.84,10.63,18.42v84.94Z"/>
    <path class="cls-1" d="M353.95,219.9c-4.4-8.74-13.16-15-20.15-17.55,.15-2.08,.12-4.28-.12-6.61-1.94-19.24-10.31-34.73-19.06-35.25-.46-.03-1.15-.15-2.01-.29-5.73-.92-19.25-3.05-29.52,4.74-3.31-5.78-8.87-13.16-16.96-16.39-6.63-2.65-13.64-2.13-20.82,1.52l-1.1,.56-.76,.97c-9.45,12.08-14.07,24.64-12.67,34.45,.16,1.15,.2,2.25,.24,3.41,.14,4.44,.7,8.35,4.29,12.66-10.57,1.49-21.7,7.07-28.25,21l-.52,1.1v1.21c-.13,11.15,5.3,20.89,15.28,27.44,6.5,4.27,14.6,6.76,21.48,7.02-1.03,9.83,1.02,21.04,5.67,29.2,3.23,5.67,7.4,9.32,12.06,10.56,3.99,1.06,7.78,1.6,11.39,1.6,9.87,0,18.39-3.98,25.83-12.02,4.71-5.09,5.05-15.73,3.66-26.78,5.64,2.87,13.77,5.95,22.65,5.95,4.12,0,8.4-.66,12.66-2.32,16.82-6.53,27.93-13.07,27.43-23.77-.24-5.14-2.7-9.02-5.54-13.5-1.58-2.49-3.36-5.3-5.18-8.92Zm-52.07-49.57c2.91,0,5.94,.36,8.98,.84,1,.16,1.85,.29,2.52,.36,2.28,1.55,7.75,10.4,9.25,25.33,.55,5.47-.31,9.6-2.58,12.28-2.52,2.98-7.04,4.65-13.81,5.11-6.73,.45-12.04,1.24-15.23,1.81-.99-1.86-2.31-3.05-3.43-3.78-.87-.57-1.8-.94-2.73-1.22-1.65-6.95-5.1-23.54,1.36-33.38,3.72-5.67,9.39-7.33,15.66-7.33Zm-26.29,55.71c.12-1.33,.37-2.7,.63-3.59,.1-.03,.2-.05,.31-.08,1.02-.26,3.54-.92,4.78-.8,0,.04,.02,.1,.03,.15,.32,1.92,.75,3.52,1.1,4.8,.12,.45,.27,1,.37,1.45-.43,.25-1.13,.6-2.25,1.04-2.72,1.09-3.15,1.11-4.98-2.98Zm-24.17-66.58c3.83-1.7,7.3-1.9,10.57-.6,6.47,2.57,11.24,10.58,13.42,15.36-6.43,12.51-3.7,28.95-1.81,37.44-.43,.11-.84,.22-1.16,.28-.53,.1-1.01,.26-1.47,.45-3.03-1.65-8.65-4.81-18.04-10.41-10.6-6.33-10.68-8.65-10.82-12.87-.04-1.35-.09-2.88-.34-4.63-.72-5.05,1.47-14.2,9.64-25.02Zm-33.77,67.29c9.7-18.74,30.69-13.51,34.28-12.46,6.16,3.63,10.34,5.99,13.02,7.46-.35,1.84-.5,3.64-.54,5.13l-.04,1.32,.23,.51c-5.43,3.49-14.01,10.25-18.42,20.03-3.84,.46-11.41-.66-18.27-5.15-4.54-2.98-9.89-8.28-10.26-16.84Zm72.46,54.94c-7.31,7.89-15.4,10.12-26.21,7.24-1.65-.44-3.62-2.43-5.28-5.33-4.31-7.56-5.77-19.03-3.46-27.28,2.48-8.87,10.78-15.27,15.57-18.33,2.19,1.82,4.69,2.74,7.5,2.74,2,0,4.16-.46,6.47-1.39,.27-.11,.5-.22,.76-.33,4.71,14.48,8.54,38.49,4.65,42.69Zm43.11-25.95c-15.13,5.88-32.26-6.75-32.49-6.92-.45-.34-.93-.57-1.43-.75-1.84-7.91-4.01-14.71-5.37-18.2,.08-.95,.04-1.96-.11-3.02,2.94-.5,7.49-1.14,13.16-1.52,9.93-.66,16.98-3.61,21.55-9.02,.85-1,1.56-2.1,2.21-3.24,3.98,1.71,10.26,5.83,13.28,11.83,2.07,4.1,4.1,7.3,5.73,9.87,2.45,3.86,3.73,5.97,3.83,8.07,.09,1.83-2.45,5.94-20.35,12.9Z"/>
  </g>
  <g>
    <g>
      <path class="cls-1" d="M83.45,412.33c-4.93,0-9,1.6-12.09,4.75-2.94,3-4.43,6.91-4.43,11.61v17.24c0,4.7,1.49,8.61,4.43,11.61,3.09,3.15,7.16,4.75,12.09,4.75s9.01-1.6,12.09-4.75c2.94-3.01,4.43-6.91,4.43-11.61v-2.89h-1.01l-6.65,3.07v.44c0,2.23-.68,4.1-2.09,5.72-1.74,2.01-3.95,2.99-6.78,2.99s-5.04-.98-6.78-2.99c-1.39-1.6-2.09-3.73-2.09-6.35v-17.24c0-2.61,.7-4.75,2.09-6.35,1.74-2.01,3.95-2.99,6.78-2.99s5.04,.98,6.78,2.99c1.39,1.6,2.09,3.73,2.09,6.35v2.89h1.01l6.65-3.07v-.44c0-4.13-1.48-7.82-4.4-10.97-2.93-3.16-7.01-4.77-12.12-4.77Z"/>
      <path class="cls-1" d="M126.04,412.33c-4.93,0-9,1.6-12.09,4.75-2.94,3-4.43,6.91-4.43,11.61v17.24c0,4.7,1.49,8.61,4.43,11.61,3.09,3.15,7.16,4.75,12.09,4.75s9.01-1.6,12.09-4.75c2.94-3.01,4.43-6.91,4.43-11.61v-17.24c0-4.72-1.49-8.63-4.43-11.61-3.09-3.15-7.16-4.75-12.09-4.75Zm8.87,33.6c0,2.61-.7,4.75-2.09,6.35-1.74,2.01-3.95,2.99-6.78,2.99s-5.04-.98-6.78-2.99c-1.39-1.6-2.09-3.73-2.09-6.35v-17.24c0-2.61,.7-4.75,2.09-6.35,1.74-2.01,3.95-2.99,6.78-2.99s5.04,.98,6.78,2.99c1.39,1.6,2.09,3.73,2.09,6.35v17.24Z"/>
      <path class="cls-1" d="M168,412.96h-11.88l-4.02,1.82v46.9h15.9c4.93,0,9-1.6,12.09-4.75,2.94-3,4.43-6.91,4.43-11.61v-15.99c0-4.72-1.49-8.63-4.43-11.61-3.09-3.15-7.16-4.75-12.09-4.75Zm8.87,32.35c0,2.62-.7,4.75-2.09,6.35-1.74,2.01-3.96,2.99-6.78,2.99h-8.24v-34.66h8.24c2.82,0,5.04,.98,6.78,2.99,1.39,1.59,2.09,3.73,2.09,6.34v15.99Z"/>
      <polygon class="cls-1" points="194.07 414.78 194.07 462.93 195.23 462.93 201.72 459.85 201.72 411.71 200.72 411.71 194.07 414.78"/>
      <path class="cls-1" d="M227.79,412.33c-4.93,0-9,1.6-12.09,4.75-2.94,3-4.43,6.91-4.43,11.61v17.24c0,4.7,1.49,8.61,4.43,11.61,3.09,3.15,7.16,4.75,12.09,4.75s9.01-1.6,12.09-4.75c2.94-3.01,4.43-6.91,4.43-11.61v-2.89h-1.01l-6.65,3.07v.44c0,2.23-.68,4.1-2.09,5.72-1.74,2.01-3.95,2.99-6.78,2.99s-5.04-.98-6.78-2.99c-1.39-1.6-2.09-3.73-2.09-6.35v-17.24c0-2.61,.7-4.75,2.09-6.35,1.74-2.01,3.95-2.99,6.78-2.99s5.04,.98,6.78,2.99c1.39,1.6,2.09,3.73,2.09,6.35v2.89h1.01l6.65-3.07v-.44c0-4.13-1.48-7.82-4.4-10.97-2.93-3.16-7.01-4.77-12.12-4.77Z"/>
      <path class="cls-1" d="M279.25,414.78v31.16c0,2.61-.7,4.75-2.09,6.35-1.74,2.01-3.95,2.99-6.78,2.99s-5.04-.98-6.78-2.99c-1.39-1.6-2.09-3.73-2.09-6.35v-34.23h-1.01l-6.65,3.07v31.16c0,4.79,1.49,8.7,4.43,11.62,3.15,3.15,7.22,4.75,12.09,4.75s9.01-1.6,12.09-4.76c2.94-3.02,4.43-6.93,4.43-11.61v-34.23h-1.01l-6.65,3.07Z"/>
      <polygon class="cls-1" points="304.11 411.71 303.1 411.71 296.45 414.78 296.45 461.68 322.78 461.68 325.51 455.89 325.58 454.58 304.11 454.58 304.11 411.71"/>
      <polygon class="cls-1" points="315.13 418.75 315.06 420.05 328.48 420.05 328.48 462.93 329.64 462.93 336.13 459.85 336.13 420.05 346.76 420.05 349.48 414.26 349.55 412.96 317.85 412.96 315.13 418.75"/>
      <polygon class="cls-1" points="357.5 440.86 371.64 440.86 374.36 435.08 374.43 433.77 357.5 433.77 357.5 420.05 371.64 420.05 374.36 414.26 374.43 412.96 353.86 412.96 349.85 414.78 349.85 461.68 376.87 461.68 379.6 455.89 379.66 454.58 357.5 454.58 357.5 440.86"/>
      <path class="cls-1" d="M409.9,414.78v31.16c0,2.61-.7,4.75-2.09,6.35-1.74,2.01-3.95,2.99-6.78,2.99s-5.04-.98-6.78-2.99c-1.38-1.6-2.09-3.73-2.09-6.35v-34.23h-1.01l-6.65,3.07v31.16c0,4.79,1.49,8.7,4.44,11.62,3.15,3.15,7.21,4.75,12.09,4.75s9.01-1.6,12.09-4.76c2.94-3.02,4.43-6.93,4.43-11.61v-34.23h-1.01l-6.65,3.07Z"/>
      <path class="cls-1" d="M455.08,440.95h0c2.94-2.99,4.43-6.9,4.43-11.62s-1.49-8.61-4.43-11.61c-3.09-3.15-7.16-4.75-12.09-4.75h-11.88l-4.02,1.82v48.15h1.01l6.65-3.07v-14.16h6.56l12.07,17.24h.83l6.4-3.02-10.81-15.45c1.98-.79,3.75-1.98,5.28-3.52Zm-12.09-2.29h-8.24v-18.67h8.24c2.82,0,5.04,.98,6.78,2.99,1.39,1.59,2.09,3.73,2.09,6.34,0,2.8-.69,4.93-2.06,6.31-2.01,2.03-4.24,3.02-6.81,3.02Z"/>
      <path class="cls-1" d="M495.57,434.86c-2.8-2.49-6.85-3.75-12.06-3.75-2.11,0-3.69-.61-4.82-1.87-.82-.91-1.23-2.32-1.23-4.21,0-1.98,.54-3.51,1.65-4.66,1.11-1.15,2.55-1.7,4.39-1.7,1.66,0,3.04,.51,4.25,1.56,1.19,1.03,1.8,2.64,1.8,4.8v3.2h1.01l6.65-3.07v-.44c0-3.88-1.39-6.98-4.14-9.22-2.58-2.1-5.8-3.16-9.56-3.16s-6.98,1.07-9.56,3.16c-2.75,2.24-4.14,5.6-4.14,10,0,3.76,1.13,6.69,3.36,8.7,2.9,2.61,6.38,3.94,10.34,3.94,3.24,0,5.65,.91,7.18,2.7,1.1,1.29,1.65,3.11,1.65,5.41,0,2.45-.69,4.47-2.05,6.03-1.76,2.01-3.98,2.99-6.78,2.99s-5.04-.98-6.78-2.99c-1.4-1.62-2.09-3.57-2.09-5.97v-3.26h-1.01l-6.65,3.07v.44c0,4.18,1.49,7.87,4.42,10.98,2.98,3.16,7.06,4.76,12.1,4.76s9.12-1.6,12.1-4.76c2.91-3.11,4.39-6.93,4.39-11.35,0-4.9-1.49-8.72-4.43-11.33Z"/>
    </g>
    <g>
      <polygon class="cls-1" points="272.37 385.39 281.89 385.39 283.81 381.33 283.87 380.12 272.37 380.12 272.37 371.24 281.89 371.24 283.81 367.18 283.87 365.98 269.67 365.98 266.72 367.3 266.72 394.27 252.8 394.27 252.8 365.13 251.89 365.13 247.15 367.3 247.15 399.53 265.41 399.53 266.72 396.75 266.72 399.53 285.45 399.53 287.36 395.47 287.43 394.27 272.37 394.27 272.37 385.39"/>
      <path class="cls-1" d="M309.22,380.92c-1.94-1.73-4.75-2.61-8.34-2.61-1.37,0-2.38-.39-3.11-1.2-.52-.57-.78-1.49-.78-2.71,0-1.29,.35-2.27,1.06-3.01,.71-.73,1.63-1.09,2.82-1.09,1.07,0,1.97,.33,2.74,1,.77,.66,1.15,1.68,1.15,3.1v2.4h.91l4.74-2.17v-.44c0-2.71-.97-4.87-2.9-6.44-1.8-1.46-4.03-2.2-6.64-2.2s-4.84,.74-6.64,2.2c-1.92,1.56-2.9,3.91-2.9,6.97,0,2.62,.79,4.67,2.36,6.07,2.01,1.82,4.42,2.74,7.18,2.74,2.16,0,3.71,.57,4.71,1.76,.71,.83,1.07,2.02,1.07,3.53,0,1.63-.44,2.92-1.34,3.95-1.15,1.32-2.6,1.96-4.44,1.96s-3.3-.64-4.44-1.95c-.92-1.06-1.37-2.34-1.37-3.91v-2.44h-.91l-4.74,2.17v.44c0,2.9,1.03,5.46,3.07,7.61,2.07,2.19,4.9,3.31,8.39,3.31s6.31-1.11,8.39-3.31c2.02-2.15,3.04-4.8,3.04-7.87,0-3.4-1.04-6.05-3.09-7.87Z"/>
    </g>
  </g>
</svg>