<?xml version="1.0" encoding="utf-8"?>
<!-- Generator: Adobe Illustrator 23.1.1, SVG Export Plug-In . SVG Version: 6.00 Build 0)  -->
<svg version="1.1" id="Calque_1" xmlns="http://www.w3.org/2000/svg" xmlns:xlink="http://www.w3.org/1999/xlink" x="0px" y="0px"
	 viewBox="0 0 70 78" style="enable-background:new 0 0 70 78;" xml:space="preserve">
<style type="text/css">
	.st0{fill:url(#SVGID_1_);}
	.st1{fill:url(#SVGID_2_);}
</style>
<g>
	
		<linearGradient id="SVGID_1_" gradientUnits="userSpaceOnUse" x1="35" y1="-1784.3008" x2="35" y2="-1759.3497" gradientTransform="matrix(1 0 0 -1 0 -1731.86)">
		<stop  offset="0" style="stop-color:#EDAD4B"/>
		<stop  offset="1" style="stop-color:#5DB18F"/>
	</linearGradient>
	<path class="st0" d="M63.7,16.4L40.2,2.8C37,1,33,1,29.9,2.8L6.3,16.4c-3.2,1.8-5.2,5.3-5.2,9v27.2c0,3.7,2,7.1,5.2,9l23.5,13.6
		c1.6,0.9,3.4,1.4,5.2,1.4s3.6-0.5,5.2-1.4l23.5-13.8c3.2-1.8,5.2-5.3,5.2-9V25.3C68.9,21.6,66.9,18.2,63.7,16.4L63.7,16.4z
		 M65.3,52.5c0,2.4-1.3,4.7-3.4,5.9L38.4,71.9c-2.1,1.2-4.7,1.2-6.8,0L8.1,58.4c-2.1-1.2-3.4-3.5-3.4-5.9V25.3
		c0-2.4,1.3-4.7,3.4-5.9L31.6,5.9C32.6,5.3,33.8,5,35,5s2.4,0.3,3.4,0.9l23.5,13.5c2.1,1.2,3.4,3.5,3.4,5.9V52.5L65.3,52.5z"/>
	
		<linearGradient id="SVGID_2_" gradientUnits="userSpaceOnUse" x1="36.301" y1="-1784.3008" x2="36.301" y2="-1759.3497" gradientTransform="matrix(1 0 0 -1 0 -1731.86)">
		<stop  offset="0" style="stop-color:#EDAD4B"/>
		<stop  offset="1" style="stop-color:#5DB18F"/>
	</linearGradient>
	<path class="st1" d="M58,38.5c-1.4-2.8-4.2-4.8-6.4-5.6c0-0.7,0-1.4,0-2.1c-0.6-6.2-3.3-11.1-6.1-11.3c-0.1,0-0.4,0-0.6-0.1
		c-1.8-0.3-6.2-1-9.4,1.5c-1.1-1.8-2.8-4.2-5.4-5.2c-2.1-0.8-4.4-0.7-6.7,0.5L23,16.4l-0.2,0.3c-3,3.9-4.5,7.9-4.1,11
		c0.1,0.4,0.1,0.7,0.1,1.1c0,1.4,0.2,2.7,1.4,4c-3.4,0.5-6.9,2.3-9,6.7L11,39.9v0.4c0,3.6,1.7,6.7,4.9,8.8c2.1,1.4,4.7,2.2,6.9,2.2
		c-0.3,3.1,0.3,6.7,1.8,9.3c1,1.8,2.4,3,3.9,3.4c1.3,0.3,2.5,0.5,3.6,0.5c3.2,0,5.9-1.3,8.3-3.8c1.5-1.6,1.6-5,1.2-8.6
		C43.4,53,46,54,48.8,54c1.3,0,2.7-0.2,4-0.7c5.4-2.1,8.9-4.2,8.8-7.6c-0.1-1.6-0.9-2.9-1.8-4.3C59.1,40.5,58.6,39.6,58,38.5
		L58,38.5z M41.3,22.6c0.9,0,1.9,0.1,2.9,0.3C44.5,23,44.8,23,45,23c0.7,0.5,2.5,3.3,3,8.1c0.2,1.7-0.1,3.1-0.8,3.9
		c-0.8,1-2.3,1.5-4.4,1.6c-2.2,0.1-3.8,0.4-4.9,0.6c-0.3-0.6-0.7-1-1.1-1.2c-0.3-0.2-0.6-0.3-0.9-0.4c-0.5-2.2-1.6-7.5,0.4-10.7
		C37.5,23.1,39.3,22.6,41.3,22.6L41.3,22.6z M32.9,40.4c0-0.4,0.1-0.9,0.2-1.1h0.1c0.3-0.1,1.1-0.3,1.5-0.3l0,0
		c0.1,0.6,0.2,1.1,0.4,1.5c0,0.1,0.1,0.3,0.1,0.5c-0.1,0.1-0.4,0.2-0.7,0.3C33.7,41.7,33.5,41.7,32.9,40.4L32.9,40.4z M25.2,19.1
		c1.2-0.5,2.3-0.6,3.4-0.2c2.1,0.8,3.6,3.4,4.3,4.9c-2.1,4-1.2,9.3-0.6,12c-0.1,0-0.3,0.1-0.4,0.1c-0.2,0-0.3,0.1-0.5,0.1
		c-1-0.5-2.8-1.5-5.8-3.3c-3.4-2-3.4-2.8-3.5-4.1c0-0.4,0-0.9-0.1-1.5C21.9,25.5,22.6,22.6,25.2,19.1L25.2,19.1z M14.4,40.6
		c3.1-6,9.8-4.3,11-4c2,1.2,3.3,1.9,4.2,2.4c-0.1,0.6-0.2,1.2-0.2,1.6V41l0.1,0.2c-1.7,1.1-4.5,3.3-5.9,6.4
		c-1.2,0.1-3.6-0.2-5.8-1.6C16.2,45.1,14.5,43.4,14.4,40.6L14.4,40.6z M37.6,58.2c-2.3,2.5-4.9,3.2-8.4,2.3
		c-0.5-0.1-1.2-0.8-1.7-1.7c-1.4-2.4-1.8-6.1-1.1-8.7c0.8-2.8,3.4-4.9,5-5.9c0.7,0.6,1.5,0.9,2.4,0.9c0.6,0,1.3-0.1,2.1-0.4
		c0.1,0,0.2-0.1,0.2-0.1C37.6,49.2,38.8,56.9,37.6,58.2L37.6,58.2z M51.4,49.9c-4.8,1.9-10.3-2.2-10.4-2.2c-0.1-0.1-0.3-0.2-0.5-0.2
		c-0.6-2.5-1.3-4.7-1.7-5.8c0-0.3,0-0.6,0-1c0.9-0.2,2.4-0.4,4.2-0.5c3.2-0.2,5.4-1.2,6.9-2.9c0.3-0.3,0.5-0.7,0.7-1
		c1.3,0.5,3.3,1.9,4.2,3.8c0.7,1.3,1.3,2.3,1.8,3.2c0.8,1.2,1.2,1.9,1.2,2.6C57.9,46.4,57.1,47.7,51.4,49.9L51.4,49.9z"/>
</g>
</svg>
