<?xml version="1.0" encoding="utf-8"?>
<!-- Generator: Adobe Illustrator 23.1.1, SVG Export Plug-In . SVG Version: 6.00 Build 0)  -->
<svg version="1.1" id="Calque_1" xmlns="http://www.w3.org/2000/svg" xmlns:xlink="http://www.w3.org/1999/xlink" x="0px" y="0px"
	 viewBox="0 0 210 50" style="enable-background:new 0 0 210 50;" xml:space="preserve">
<style type="text/css">
	.st0{fill:#EDAD4C;}
	.st1{fill:#5DB18F;}
</style>
<g>
	<g>
		<path class="st0" d="M8.7,24.1c-2.4,0-4.3,0.8-5.8,2.3c-1.4,1.4-2.1,3.3-2.1,5.6v8.3c0,2.3,0.7,4.1,2.1,5.6
			c1.5,1.5,3.5,2.3,5.8,2.3s4.3-0.8,5.8-2.3c1.4-1.5,2.1-3.3,2.1-5.6v-1.4h-0.5l-3.2,1.5v0.2c0,1.1-0.3,2-1,2.8
			c-0.8,1-1.9,1.4-3.3,1.4s-2.4-0.5-3.3-1.4c-0.7-0.8-1-1.8-1-3.1V32c0-1.3,0.3-2.3,1-3.1c0.8-1,1.9-1.4,3.3-1.4s2.4,0.5,3.3,1.4
			c0.7,0.8,1,1.8,1,3.1v1.4h0.5l3.2-1.5v-0.2c0-2-0.7-3.8-2.1-5.3C13.1,24.9,11.2,24.1,8.7,24.1L8.7,24.1z"/>
		<path class="st0" d="M29.2,24.1c-2.4,0-4.3,0.8-5.8,2.3c-1.4,1.4-2.1,3.3-2.1,5.6v8.3c0,2.3,0.7,4.1,2.1,5.6
			c1.5,1.5,3.5,2.3,5.8,2.3c2.4,0,4.3-0.8,5.8-2.3c1.4-1.5,2.1-3.3,2.1-5.6V32c0-2.3-0.7-4.2-2.1-5.6C33.6,24.9,31.6,24.1,29.2,24.1
			z M33.5,40.3c0,1.3-0.3,2.3-1,3.1c-0.8,1-1.9,1.4-3.3,1.4c-1.4,0-2.4-0.5-3.3-1.4c-0.7-0.8-1-1.8-1-3.1V32c0-1.3,0.3-2.3,1-3.1
			c0.8-1,1.9-1.4,3.3-1.4c1.4,0,2.4,0.5,3.3,1.4c0.7,0.8,1,1.8,1,3.1V40.3z"/>
		<path class="st0" d="M49.5,24.4h-5.7l-1.9,0.9v22.6h7.7c2.4,0,4.3-0.8,5.8-2.3c1.4-1.4,2.1-3.3,2.1-5.6v-7.7
			c0-2.3-0.7-4.2-2.1-5.6C53.8,25.2,51.8,24.4,49.5,24.4L49.5,24.4z M53.7,40c0,1.3-0.3,2.3-1,3.1c-0.8,1-1.9,1.4-3.3,1.4h-4V27.8h4
			c1.4,0,2.4,0.5,3.3,1.4c0.7,0.8,1,1.8,1,3.1V40L53.7,40z"/>
		<polygon class="st0" points="62,25.3 62,48.5 62.6,48.5 65.7,47 65.7,23.8 65.2,23.8 		"/>
		<path class="st0" d="M78.3,24.1c-2.4,0-4.3,0.8-5.8,2.3c-1.4,1.4-2.1,3.3-2.1,5.6v8.3c0,2.3,0.7,4.1,2.1,5.6
			c1.5,1.5,3.5,2.3,5.8,2.3c2.4,0,4.3-0.8,5.8-2.3c1.4-1.5,2.1-3.3,2.1-5.6v-1.4h-0.5l-3.2,1.5v0.2c0,1.1-0.3,2-1,2.8
			c-0.8,1-1.9,1.4-3.3,1.4s-2.4-0.5-3.3-1.4c-0.7-0.8-1-1.8-1-3.1V32c0-1.3,0.3-2.3,1-3.1c0.8-1,1.9-1.4,3.3-1.4s2.4,0.5,3.3,1.4
			c0.7,0.8,1,1.8,1,3.1v1.4H83l3.2-1.5v-0.2c0-2-0.7-3.8-2.1-5.3C82.7,24.9,80.7,24.1,78.3,24.1L78.3,24.1z"/>
		<path class="st0" d="M103.1,25.3v15c0,1.3-0.3,2.3-1,3.1c-0.8,1-1.9,1.4-3.3,1.4s-2.4-0.5-3.3-1.4c-0.7-0.8-1-1.8-1-3.1V23.8H94
			l-3.2,1.5v15c0,2.3,0.7,4.2,2.1,5.6c1.5,1.5,3.5,2.3,5.8,2.3s4.3-0.8,5.8-2.3c1.4-1.5,2.1-3.3,2.1-5.6V23.8h-0.5L103.1,25.3
			L103.1,25.3z"/>
		<polygon class="st0" points="115.1,23.8 114.6,23.8 111.4,25.3 111.4,47.9 124.1,47.9 125.4,45.1 125.4,44.5 115.1,44.5 		"/>
		<polygon class="st0" points="120.4,27.2 120.3,27.8 126.8,27.8 126.8,48.5 127.4,48.5 130.5,47 130.5,27.8 135.6,27.8 136.9,25 
			137,24.4 121.7,24.4 		"/>
		<polygon class="st0" points="140.8,37.9 147.6,37.9 148.9,35.1 148.9,34.4 140.8,34.4 140.8,27.8 147.6,27.8 148.9,25 148.9,24.4 
			139,24.4 137.1,25.3 137.1,47.9 150.1,47.9 151.4,45.1 151.5,44.5 140.8,44.5 		"/>
		<path class="st0" d="M166,25.3v15c0,1.3-0.3,2.3-1,3.1c-0.8,1-1.9,1.4-3.3,1.4s-2.4-0.5-3.3-1.4c-0.7-0.8-1-1.8-1-3.1V23.8h-0.5
			l-3.2,1.5v15c0,2.3,0.7,4.2,2.1,5.6c1.5,1.5,3.5,2.3,5.8,2.3c2.4,0,4.3-0.8,5.8-2.3c1.4-1.5,2.1-3.3,2.1-5.6V23.8H169L166,25.3
			L166,25.3z"/>
		<path class="st0" d="M187.8,37.9L187.8,37.9c1.4-1.4,2.1-3.3,2.1-5.6c0-2.3-0.7-4.1-2.1-5.6c-1.5-1.5-3.5-2.3-5.8-2.3h-5.7
			l-1.9,0.9v23.2h0.5l3.2-1.5v-6.8h3.2l5.8,8.3h0.4l3.1-1.5l-5.2-7.4C186.2,39.2,187.1,38.6,187.8,37.9L187.8,37.9z M182,36.8h-4v-9
			h4c1.4,0,2.4,0.5,3.3,1.4c0.7,0.8,1,1.8,1,3.1c0,1.3-0.3,2.4-1,3C184.3,36.3,183.2,36.8,182,36.8L182,36.8z"/>
		<path class="st0" d="M207.3,35c-1.3-1.2-3.3-1.8-5.8-1.8c-1,0-1.8-0.3-2.3-0.9c-0.4-0.4-0.6-1.1-0.6-2c0-1,0.3-1.7,0.8-2.2
			c0.5-0.6,1.2-0.8,2.1-0.8c0.8,0,1.5,0.2,2,0.8c0.6,0.5,0.9,1.3,0.9,2.3v1.5h0.5l3.2-1.5v-0.3c0-1.9-0.7-3.4-2-4.4
			c-1.2-1-2.8-1.5-4.6-1.5s-3.4,0.5-4.6,1.5c-1.3,1.1-2,2.7-2,4.8c0,1.8,0.5,3.2,1.6,4.2c1.4,1.3,3.1,1.9,5,1.9
			c1.6,0,2.7,0.4,3.5,1.3c0.5,0.6,0.8,1.5,0.8,2.6c0,1.2-0.3,2.2-1,2.9c-0.8,1-1.9,1.4-3.3,1.4c-1.3,0-2.4-0.5-3.3-1.4
			c-0.7-0.8-1-1.7-1-2.9v-1.6h-0.5l-3.2,1.5v0.2c0,2,0.7,3.8,2.1,5.3c1.4,1.5,3.4,2.3,5.8,2.3c2.4,0,4.4-0.8,5.8-2.3
			c1.4-1.5,2.1-3.3,2.1-5.5C209.5,38.1,208.7,36.2,207.3,35L207.3,35z"/>
	</g>
	<g>
		<polygon class="st1" points="12.9,11.1 17.5,11.1 18.4,9.2 18.4,8.6 12.9,8.6 12.9,4.3 17.5,4.3 18.4,2.3 18.4,1.8 11.6,1.8 
			10.2,2.4 10.2,15.4 3.5,15.4 3.5,1.4 3,1.4 0.7,2.4 0.7,17.9 9.5,17.9 10.2,16.6 10.2,17.9 19.2,17.9 20.1,16 20.2,15.4 
			12.9,15.4 		"/>
		<path class="st1" d="M30.7,9c-0.9-0.8-2.3-1.3-4-1.3c-0.7,0-1.1-0.2-1.5-0.6c-0.3-0.3-0.4-0.7-0.4-1.3c0-0.6,0.2-1.1,0.5-1.5
			s0.8-0.5,1.4-0.5c0.5,0,0.9,0.2,1.3,0.5c0.4,0.3,0.6,0.8,0.6,1.5V7H29l2.3-1V5.8c0-1.3-0.5-2.3-1.4-3.1C29,2,28,1.6,26.7,1.6
			S24.4,2,23.5,2.7c-0.9,0.8-1.4,1.9-1.4,3.4c0,1.3,0.4,2.3,1.1,2.9c1,0.9,2.1,1.3,3.5,1.3c1,0,1.8,0.3,2.3,0.8
			c0.3,0.4,0.5,1,0.5,1.7c0,0.8-0.2,1.4-0.6,1.9c-0.6,0.6-1.3,0.9-2.1,0.9c-0.9,0-1.6-0.3-2.1-0.9c-0.4-0.5-0.7-1.1-0.7-1.9v-1.2
			h-0.4l-2.3,1v0.2c0,1.4,0.5,2.6,1.5,3.7s2.4,1.6,4,1.6c1.7,0,3-0.5,4-1.6c1-1,1.5-2.3,1.5-3.8C32.1,11.1,31.6,9.8,30.7,9L30.7,9z"
			/>
	</g>
</g>
</svg>
